# xmcd
#
# Track frame offsets:
#	150
#	36504
#	73520
#	103924
#
# Disc length: 1983 seconds
#
# Revision: 0
# Processed by: cddbd v1.5.2PL0 Copyright (c) Steve Scherf et al.
# Submitted via: EasyCDDAExtractor 16.0.0.1
#
DISCID=3607bd04
DTITLE=Paara - Yön olevainen puoli
DYEAR=2015
DGENRE=
TTITLE0=Paara
TTITLE1=Ruttoa ja kuolemaa
TTITLE2=Joutomaa
TTITLE3=Aikaan hautautunut
EXTD=
EXTT0=
EXTT1=
EXTT2=
EXTT3=
PLAYORDER=
